<mxfile host="app.diagrams.net" modified="2024-01-03T08:09:45.050Z" agent="Mozilla/5.0 (Windows NT 10.0; Win64; x64) AppleWebKit/537.36 (KHTML, like Gecko) Chrome/120.0.0.0 Safari/537.36 Edg/120.0.0.0" etag="pixnTmcCV_tfzWQU22-D" version="22.1.16" type="github">
  <diagram name="Page-1" id="JypWgU2kkj7hyVlk39bv">
    <mxGraphModel dx="952" dy="455" grid="0" gridSize="10" guides="1" tooltips="1" connect="1" arrows="1" fold="1" page="1" pageScale="1" pageWidth="827" pageHeight="1169" background="#000000" math="0" shadow="0">
      <root>
        <mxCell id="0" />
        <mxCell id="1" parent="0" />
        <mxCell id="7KhlkNoTd32GwvBgWBZV-7" style="edgeStyle=orthogonalEdgeStyle;rounded=0;orthogonalLoop=1;jettySize=auto;html=1;entryX=0;entryY=0.5;entryDx=0;entryDy=0;strokeColor=#FFFFFF;" edge="1" parent="1" source="7KhlkNoTd32GwvBgWBZV-2" target="7KhlkNoTd32GwvBgWBZV-3">
          <mxGeometry relative="1" as="geometry" />
        </mxCell>
        <mxCell id="7KhlkNoTd32GwvBgWBZV-8" style="edgeStyle=orthogonalEdgeStyle;rounded=0;orthogonalLoop=1;jettySize=auto;html=1;entryX=0;entryY=0.5;entryDx=0;entryDy=0;strokeColor=#FFFFFF;" edge="1" parent="1" source="7KhlkNoTd32GwvBgWBZV-2" target="7KhlkNoTd32GwvBgWBZV-4">
          <mxGeometry relative="1" as="geometry" />
        </mxCell>
        <mxCell id="7KhlkNoTd32GwvBgWBZV-2" value="Battery" style="rounded=1;whiteSpace=wrap;html=1;fillColor=#994C00;gradientColor=none;strokeColor=#9673a6;fillStyle=auto;" vertex="1" parent="1">
          <mxGeometry x="74" y="292" width="120" height="60" as="geometry" />
        </mxCell>
        <mxCell id="7KhlkNoTd32GwvBgWBZV-10" style="edgeStyle=orthogonalEdgeStyle;rounded=0;orthogonalLoop=1;jettySize=auto;html=1;strokeColor=#FFFFFF;" edge="1" parent="1">
          <mxGeometry relative="1" as="geometry">
            <mxPoint x="473.49" y="322" as="targetPoint" />
            <mxPoint x="393.49" y="242.02857142857135" as="sourcePoint" />
            <Array as="points">
              <mxPoint x="434" y="242" />
              <mxPoint x="434" y="322" />
            </Array>
          </mxGeometry>
        </mxCell>
        <mxCell id="7KhlkNoTd32GwvBgWBZV-3" value="Current Sensor" style="rounded=1;whiteSpace=wrap;html=1;fillColor=#994C00;strokeColor=#9673a6;fillStyle=auto;" vertex="1" parent="1">
          <mxGeometry x="274" y="212" width="120" height="60" as="geometry" />
        </mxCell>
        <mxCell id="7KhlkNoTd32GwvBgWBZV-9" style="edgeStyle=orthogonalEdgeStyle;rounded=0;orthogonalLoop=1;jettySize=auto;html=1;entryX=0;entryY=0.5;entryDx=0;entryDy=0;strokeColor=#FFFFFF;" edge="1" parent="1" source="7KhlkNoTd32GwvBgWBZV-4" target="7KhlkNoTd32GwvBgWBZV-5">
          <mxGeometry relative="1" as="geometry" />
        </mxCell>
        <mxCell id="7KhlkNoTd32GwvBgWBZV-4" value="Voltage Sensor" style="rounded=1;whiteSpace=wrap;html=1;fillColor=#994C00;strokeColor=#9673a6;fillStyle=auto;" vertex="1" parent="1">
          <mxGeometry x="274" y="372" width="120" height="60" as="geometry" />
        </mxCell>
        <mxCell id="7KhlkNoTd32GwvBgWBZV-11" style="edgeStyle=orthogonalEdgeStyle;rounded=0;orthogonalLoop=1;jettySize=auto;html=1;entryX=0;entryY=0.5;entryDx=0;entryDy=0;strokeColor=#FFFFFF;" edge="1" parent="1" source="7KhlkNoTd32GwvBgWBZV-5" target="7KhlkNoTd32GwvBgWBZV-6">
          <mxGeometry relative="1" as="geometry" />
        </mxCell>
        <mxCell id="7KhlkNoTd32GwvBgWBZV-5" value="Microprocessor" style="rounded=1;whiteSpace=wrap;html=1;fillColor=#994C00;strokeColor=#9673a6;fillStyle=auto;" vertex="1" parent="1">
          <mxGeometry x="474" y="292" width="120" height="60" as="geometry" />
        </mxCell>
        <mxCell id="7KhlkNoTd32GwvBgWBZV-6" value="User Interface" style="rounded=1;whiteSpace=wrap;html=1;fillColor=#994C00;strokeColor=#9673a6;fillStyle=auto;" vertex="1" parent="1">
          <mxGeometry x="634" y="292" width="120" height="60" as="geometry" />
        </mxCell>
      </root>
    </mxGraphModel>
  </diagram>
</mxfile>
